/* XPM */
static char *_49401c392b046e3985eacb7427970a0RSbeXIhZT389GF9Y[] = {
/* columns rows colors chars-per-pixel */
"32 32 6 1 ",
"  c None",
". c #0C1317",
"X c #5A5875",
"o c #FE8270",
"O c #42428F",
"+ c #8D768A",
/* pixels */
"                                ",
"                                ",
"                                ",
"                                ",
"                                ",
"                                ",
"                                ",
"                                ",
"                                ",
"                                ",
"                                ",
"                 ++++           ",
"           oo  +++++++          ",
"         ++oo++++++++++         ",
"        +..++++++++++++         ",
"      X++++++++++++++++         ",
"       ++++++++++++++++         ",
"            +++OO++++++o        ",
"             + OO  ++OOoo       ",
"            oo  O oo  O  oooo   ",
"                                ",
"                                ",
"                                ",
"                                ",
"                                ",
"                                ",
"                                ",
"                                ",
"                                ",
"                                ",
"                                ",
"                                "
};
