/* XPM */
static char *_6749a6d11424088b7e6b1acafb646f96smz90vS11YwL84w[] = {
/* columns rows colors chars-per-pixel */
"32 32 6 1 ",
"  c None",
". c #211D1D",
"X c #70162B",
"o c #A84111",
"O c #E17B50",
"+ c #FAFA82",
/* pixels */
"             OOOOOO             ",
"          OOOOOOOOOOOO          ",
"        OOOOOOOOOOOOOOOO        ",
"       OOOOOooooooooOOOOO       ",
"      OOOOooooooooooooOOOO      ",
"     OOOooooooooooooooooOOO     ",
"    OOOoooooo......ooooooOOO    ",
"   OOOooooo..........oooooOOO   ",
"   OOooooo...oooooo...oooooOO   ",
"  OOooooo..oXoooooooo..oooooOO  ",
"  Oooooo..ooXooooooooo..oooooO  ",
"  Ooooo..oooXoooooooooo..ooooO  ",
" Ooooo..oooooooooooXoooo..ooooO ",
" Ooooo..oooooooooooXoooo..ooooO ",
" Oooo..ooooooooooooXooooo..oooO ",
" Oooo..ooooooooooooXooooo..oooO ",
" Oooo..oooooXooooooXooooo..oooO ",
" oooo..oooooXoooooooooooo..oooo ",
" oooo..oooooXoooooooo++oo..oooo ",
" oooo..oooooXooooooo++++o..oooo ",
" oooo..oooooXooooooo++++o..oooo ",
" oooo..oooooooooooooX++Xo..oooo ",
" oooo..ooooooooooooooXXoo..oooo ",
" oooo..oooooooooooooooooo..oooo ",
" oooo..ooooooooooooXooooo..oooo ",
" oooo..oooooXooooooXooooo..oooo ",
" oooo..oooooXooooooXooooo..oooo ",
" oooo..oooooXooooooXooooo..oooo ",
" oooo..oooooXoooooooooooo..oooo ",
" oooo..oooooXoooooooooooo..oooo ",
" oooo..oooooXooooooXooooo..oooo ",
" oooo..                  ..oooo "
};
