/* XPM */
static char *_441cf4d9d70489084b5ec57e1dfb2bcEx90mod7YmAlS0eO[] = {
/* columns rows colors chars-per-pixel */
"32 32 2 1 ",
"  c #111F12",
". c #17394A",
/* pixels */
"                                ",
"                                ",
"                                ",
"                                ",
"                                ",
"                                ",
"                                ",
"                                ",
"                                ",
"                                ",
"                                ",
"          ..                    ",
"            .      .            ",
"            .     .             ",
"             .    .             ",
"             .   .              ",
"             . . .   .          ",
"          .  . . .  .           ",
"           . . . .  .           ",
"           . . . . .            ",
"           . . . . .            ",
"           . . . . .            ",
"             .   .              ",
"                                ",
"                                ",
"                                ",
"                                ",
"                                ",
"                                ",
"                                ",
"                                ",
"                                "
};
