/* XPM */
static char *_0b1e1bf3fbc47cbbb28af7c262a85f9NUt9cH1p3NGLl8Hm[] = {
/* columns rows colors chars-per-pixel */
"32 32 6 1 ",
"  c None",
". c #0C1317",
"X c #472138",
"o c #8C6A56",
"O c #BAA368",
"+ c #42428F",
/* pixels */
"                                ",
"                                ",
"                  ooooo         ",
"                ooooooooo       ",
"           ooooooooooooooo      ",
"          ooooooooooooooooo     ",
"       ooooooooooooooooooooo    ",
"      ooooooooooooooooooooooo   ",
"XXX   ooooooooooooooooooooooo   ",
"XXXX ooooo..ooooooooooooooooo   ",
"XXXoooooo...ooooooooooooooooo   ",
"XXooooooo...oooooooooooooooooo  ",
" ooooooooo.oooooooooooooooooooo ",
" oooooooooooooooooooooooooooooo ",
" oooooooooooooooooooooooooooooo ",
" OOooo..ooooooooooooooooooooooo ",
"++Ooooooooooooooooooooooooooooo ",
"++OOooooooooooooooooooooooooooo ",
"OOOOoooooooooooooooooooooooooo  ",
"oOOooooooooooooooooooooooooooo  ",
"    oooooooooooooooooXXooooooo  ",
"      XXXXXooooooooXXXXooooooo  ",
"       XXXXooooooooXXXX oooooo  ",
"       XXXXXoooooooXXXXX oooooo ",
"        XXXX ooooooXXXXX oooooo ",
"        XXXX ooooooXXX   oooooo ",
"       XXXXX  ooooo     ooooooo ",
"              ooooo       ooo   ",
"            ooooooo             ",
"             ooooo              ",
"               oo               ",
"                                "
};
