/* XPM */
static char *_87b047d51f14500a5d31e2405040986fE3TGUk5z58M2osQ[] = {
/* columns rows colors chars-per-pixel */
"32 32 6 1 ",
"  c None",
". c #111F12",
"X c #17394A",
"o c #14605D",
"O c #A84111",
"+ c #5C855B",
/* pixels */
"                                ",
"                                ",
"                                ",
"                                ",
"                +               ",
"               ++               ",
"              o++o              ",
"            oo+++o              ",
"             o+++oo             ",
"            o+++++o             ",
"           o++o+++ooo           ",
"            +o++o++o            ",
"           +o+++oo++o           ",
"           oooo+ooooo           ",
"        oooo++o++o+ooo          ",
"         oo+++oooo+++oo         ",
"          ++ooo++oo++o          ",
"         oooooo+++ooooo         ",
"      ooooooo+oo++ooooooo       ",
"       ooooo++oooooooooo        ",
"        oooo+oooooooooo         ",
"       XXoooooooooooooooo       ",
"      XXoooooooooooooooooo      ",
"       ooooooooooooooooXX       ",
"        XoXoooooooooooooXX      ",
"       XXXoooXoooooooooo        ",
"         ooXXooXooXooXXo        ",
"            Xo...o  o X         ",
"              ....              ",
"              OOOO              ",
"               OO               ",
"                                "
};
